<?xml version="1.0" standalone="no"?>
<!DOCTYPE svg PUBLIC "-//W3C//DTD SVG 20010904//EN"
 "http://www.w3.org/TR/2001/REC-SVG-20010904/DTD/svg10.dtd">
<svg version="1.0" xmlns="http://www.w3.org/2000/svg"
 width="1515.000000pt" height="453.000000pt" viewBox="0 0 1515.000000 453.000000"
 preserveAspectRatio="xMidYMid meet">

<g transform="translate(0.000000,453.000000) scale(0.100000,-0.100000)"
fill="#000000" stroke="none">
<path d="M11102 4024 c-13 -25 -170 -446 -261 -701 l-73 -201 -141 -7 c-78 -3
-316 -12 -530 -19 -213 -7 -390 -15 -392 -18 -3 -3 48 -39 112 -80 497 -317
718 -459 726 -467 6 -6 -1 -38 -18 -83 -98 -260 -295 -815 -295 -830 0 -10 4
-18 9 -18 13 0 238 138 557 341 154 98 287 179 294 179 23 0 251 -124 395
-215 195 -124 495 -305 505 -305 10 0 -14 74 -169 530 -67 195 -121 362 -121
371 0 31 224 191 628 449 106 67 190 125 188 128 -3 3 -180 11 -393 18 -214 7
-452 16 -529 19 l-142 7 -67 191 c-76 217 -253 695 -265 716 -6 12 -10 11 -18
-5z"/>
<path d="M1776 3976 c-37 -78 -120 -291 -231 -592 -53 -142 -97 -259 -99 -261
-1 -2 -212 -10 -467 -18 -255 -9 -494 -19 -531 -23 l-68 -7 182 -115 c285
-180 562 -364 606 -404 22 -20 43 -47 46 -60 4 -16 -17 -85 -63 -207 -104
-277 -231 -646 -231 -670 0 -15 5 -19 15 -15 21 8 197 121 465 299 239 159
300 193 367 203 87 13 131 -10 568 -292 161 -105 340 -214 350 -214 2 0 -39
125 -91 278 -154 445 -204 596 -204 619 0 40 210 192 649 468 l174 110 -69 7
c-38 4 -278 14 -533 22 -256 9 -468 19 -472 23 -4 5 -80 208 -169 453 -89 245
-163 446 -165 448 -2 2 -15 -22 -29 -52z"/>
<path d="M4880 4017 c0 -20 -312 -853 -325 -867 -9 -10 -36 -23 -61 -29 -53
-14 -404 -30 -674 -32 -107 -1 -226 -4 -263 -8 l-69 -6 94 -59 c156 -100 671
-443 703 -469 l29 -25 -18 -76 c-22 -92 -65 -227 -180 -560 -48 -138 -86 -258
-84 -268 3 -17 7 -16 53 8 67 36 484 305 669 432 l148 101 251 -168 c273 -182
579 -381 614 -399 l22 -12 -19 67 c-25 92 -165 494 -234 677 l-57 149 23 33
c32 48 187 161 523 383 159 105 287 191 285 191 -3 0 -169 5 -370 10 -354 10
-588 24 -647 39 -41 10 -77 86 -203 422 -110 291 -178 450 -199 463 -6 4 -11
5 -11 3z"/>
<path d="M7967 3930 c-45 -95 -113 -273 -243 -636 l-69 -192 -415 -6 c-228 -3
-466 -9 -528 -12 l-113 -6 416 -278 c229 -153 419 -280 422 -283 2 -3 -45
-144 -107 -312 -116 -320 -210 -592 -210 -606 0 -5 8 -6 18 -2 20 7 331 204
649 410 l221 144 279 -182 c425 -278 593 -375 593 -343 0 4 -58 183 -129 398
-71 215 -135 415 -142 445 l-13 54 41 36 c37 32 179 126 647 429 l138 90 -133
6 c-74 3 -313 9 -533 13 l-398 8 -35 95 c-19 52 -88 241 -153 420 -64 179
-126 343 -138 365 l-20 40 -45 -95z"/>
<path d="M14165 3907 c-9 -15 -77 -189 -150 -388 -74 -198 -139 -367 -145
-374 -7 -8 -35 -19 -63 -25 -66 -13 -401 -29 -662 -31 -110 -1 -231 -4 -270
-8 -66 -6 -69 -7 -45 -20 52 -29 726 -479 758 -505 22 -19 32 -36 32 -56 0
-45 -61 -245 -156 -510 -86 -241 -128 -379 -119 -388 11 -11 259 144 659 411
l209 139 -6 880 c-3 562 -9 884 -15 890 -7 7 -16 1 -27 -15z"/>
</g>
</svg>
