<?xml version="1.0" standalone="no"?>
<!DOCTYPE svg PUBLIC "-//W3C//DTD SVG 20010904//EN"
 "http://www.w3.org/TR/2001/REC-SVG-20010904/DTD/svg10.dtd">
<svg version="1.0" xmlns="http://www.w3.org/2000/svg"
 width="550.000000pt" height="452.000000pt" viewBox="0 0 550.000000 452.000000"
 preserveAspectRatio="xMidYMid meet">

<g transform="translate(0.000000,452.000000) scale(0.100000,-0.100000)"
fill="#000000" stroke="none">
<path d="M1065 4501 c-462 -83 -837 -410 -989 -862 -67 -202 -92 -472 -62
-677 140 -945 1223 -2142 2648 -2925 36 -21 75 -37 86 -37 27 0 139 60 352
188 529 317 992 680 1398 1096 562 576 911 1167 987 1671 37 250 -1 551 -100
786 -223 530 -780 848 -1335 765 -470 -72 -932 -465 -1230 -1048 -36 -70 -67
-128 -70 -128 -3 0 -34 58 -70 128 -126 247 -313 501 -489 663 -348 320 -732
450 -1126 380z m466 -214 c309 -93 596 -326 826 -672 117 -176 180 -296 260
-495 58 -145 77 -170 133 -170 56 0 75 25 133 170 240 599 647 1038 1082 1166
111 32 295 43 413 24 475 -76 829 -444 907 -945 23 -143 17 -361 -13 -490
-153 -661 -768 -1441 -1667 -2113 -234 -175 -611 -420 -798 -517 l-57 -30 -53
28 c-107 56 -373 220 -539 332 -792 538 -1418 1185 -1736 1795 -99 189 -157
342 -199 525 -23 101 -25 402 -4 510 93 470 418 807 867 900 47 10 115 13 214
11 120 -3 160 -8 231 -29z"/>
</g>
</svg>
