<?xml version="1.0" standalone="no"?>
<!DOCTYPE svg PUBLIC "-//W3C//DTD SVG 20010904//EN"
 "http://www.w3.org/TR/2001/REC-SVG-20010904/DTD/svg10.dtd">
<svg version="1.0" xmlns="http://www.w3.org/2000/svg"
 width="465.000000pt" height="379.000000pt" viewBox="0 0 465.000000 379.000000"
 preserveAspectRatio="xMidYMid meet">

<g transform="translate(0.000000,379.000000) scale(0.100000,-0.100000)"
fill="#000000" stroke="none">
<path d="M1416 3284 c-274 -50 -520 -244 -642 -510 -53 -113 -77 -229 -77
-364 0 -130 16 -218 62 -335 65 -169 79 -185 830 -938 658 -659 698 -697 731
-697 33 0 74 39 731 698 383 383 712 720 732 748 51 72 113 205 138 299 32
116 32 327 1 441 -160 591 -825 857 -1341 537 -40 -25 -115 -86 -167 -136
l-94 -90 -94 91 c-52 51 -122 109 -156 131 -184 119 -428 166 -654 125z"/>
</g>
</svg>
