<svg width="59" height="61" viewBox="0 0 59 61" fill="none" xmlns="http://www.w3.org/2000/svg">
<path d="M57.8822 22.732C58.3316 22.3627 59 22.7082 59 23.292V47.6562C59 50.8135 56.5225 53.375 53.4688 53.375H5.53125C2.47754 53.375 0 50.8135 0 47.6562V23.3039C0 22.7082 0.656836 22.3746 1.11777 22.7439C3.69902 24.817 7.12148 27.45 18.8754 36.2783C21.3068 38.1131 25.4092 41.9732 29.5 41.9494C33.6139 41.9852 37.7969 38.0416 40.1361 36.2783C51.89 27.45 55.301 24.8051 57.8822 22.732ZM29.5 38.125C32.1734 38.1727 36.0223 34.6461 37.9582 33.1926C53.2498 21.7193 54.4137 20.7186 57.9398 17.8592C58.6082 17.323 59 16.4891 59 15.6074V13.3438C59 10.1865 56.5225 7.625 53.4688 7.625H5.53125C2.47754 7.625 0 10.1865 0 13.3438V15.6074C0 16.4891 0.391797 17.3111 1.06016 17.8592C4.58633 20.7066 5.7502 21.7193 21.0418 33.1926C22.9777 34.6461 26.8266 38.1727 29.5 38.125Z" fill="black"/>
</svg>
