<svg width="56" height="50" viewBox="0 0 56 50" fill="none" xmlns="http://www.w3.org/2000/svg">
<path opacity="0.8" d="M51.345 29.4257L55.941 9.11318C56.2728 7.64658 55.163 6.25 53.6657 6.25H15.4786L14.5874 1.87402C14.3654 0.783301 13.4099 0 12.3014 0H2.33333C1.04465 0 0 1.04932 0 2.34375V3.90625C0 5.20068 1.04465 6.25 2.33333 6.25H9.12752L15.9572 39.7886C14.3233 40.7324 13.2222 42.5021 13.2222 44.5312C13.2222 47.5516 15.6598 50 18.6667 50C21.6736 50 24.1111 47.5516 24.1111 44.5312C24.1111 43.0006 23.4843 41.6177 22.4754 40.625H42.8578C41.849 41.6177 41.2222 43.0006 41.2222 44.5312C41.2222 47.5516 43.6598 50 46.6667 50C49.6736 50 52.1111 47.5516 52.1111 44.5312C52.1111 42.366 50.8581 40.4949 49.0409 39.6089L49.5773 37.2382C49.9091 35.7716 48.7993 34.375 47.302 34.375H21.2058L20.5695 31.25H49.0697C50.1592 31.25 51.1036 30.4928 51.345 29.4257Z" fill="#303030"/>
</svg>
