<svg width="38" height="38" viewBox="0 0 38 38" fill="none" xmlns="http://www.w3.org/2000/svg">
<g clip-path="url(#clip0_764_971)">
<path d="M24.0638 9.9774L18.7815 15.2597L13.4992 9.9774C12.851 9.32921 11.7997 9.32921 11.1515 9.9774L9.97766 11.1512C9.32948 11.7994 9.32948 12.8508 9.97766 13.4989L15.26 18.7812L9.97766 24.0636C9.32948 24.7117 9.32948 25.7631 9.97766 26.4113L11.1515 27.5851C11.7997 28.2333 12.851 28.2333 13.4992 27.5851L18.7815 22.3028L24.0638 27.5851C24.712 28.2333 25.7633 28.2333 26.4115 27.5851L27.5854 26.4113C28.2336 25.7631 28.2336 24.7117 27.5854 24.0636L22.3031 18.7812L27.5854 13.4989C28.2336 12.8508 28.2336 11.7994 27.5854 11.1512L26.4115 9.9774C25.7633 9.32921 24.712 9.32921 24.0638 9.9774Z" fill="#373636"/>
</g>
<defs>
<clipPath id="clip0_764_971">
<rect width="26.5611" height="26.5611" fill="white" transform="translate(0 18.7812) rotate(-45)"/>
</clipPath>
</defs>
</svg>
