<svg width="49" height="54" viewBox="0 0 49 54" fill="none" xmlns="http://www.w3.org/2000/svg">
<path d="M15.048 43.2339C15.048 43.42 14.8532 43.5689 14.6077 43.5689C14.3282 43.5968 14.1335 43.4479 14.1335 43.2339C14.1335 43.0478 14.3282 42.8989 14.5738 42.8989C14.8278 42.871 15.048 43.0199 15.048 43.2339ZM12.4145 42.8152C12.3552 43.0013 12.5246 43.2153 12.7786 43.2712C12.9988 43.3642 13.2528 43.2712 13.3036 43.085C13.3544 42.8989 13.1935 42.6849 12.9395 42.6012C12.7194 42.5361 12.4738 42.6291 12.4145 42.8152ZM16.1573 42.657C15.9117 42.7222 15.7423 42.8989 15.7677 43.113C15.7931 43.2991 16.0133 43.42 16.2673 43.3549C16.5129 43.2898 16.6823 43.113 16.6569 42.9269C16.6315 42.7501 16.4028 42.6291 16.1573 42.657ZM21.729 7C9.98427 7 1 16.7982 1 29.7044C1 40.0237 6.91048 48.8542 15.3528 51.9621C16.4367 52.1761 16.8177 51.441 16.8177 50.8362C16.8177 50.2593 16.7923 47.0769 16.7923 45.1229C16.7923 45.1229 10.8649 46.5186 9.62016 42.3499C9.62016 42.3499 8.65484 39.6422 7.26613 38.9443C7.26613 38.9443 5.32702 37.4834 7.40161 37.5113C7.40161 37.5113 9.51008 37.6974 10.6702 39.912C12.5246 43.5038 15.6323 42.4709 16.8431 41.8568C17.0379 40.368 17.5883 39.3351 18.198 38.721C13.4645 38.1441 8.68871 37.3903 8.68871 28.4389C8.68871 25.88 9.33226 24.5959 10.6871 22.9582C10.4669 22.3534 9.74718 19.8596 10.9073 16.64C12.677 16.0352 16.75 19.1524 16.75 19.1524C18.4435 18.6313 20.2641 18.3615 22.0677 18.3615C23.8714 18.3615 25.6919 18.6313 27.3855 19.1524C27.3855 19.1524 31.4585 16.0259 33.2282 16.64C34.3883 19.8689 33.6685 22.3534 33.4484 22.9582C34.8032 24.6052 35.6331 25.8893 35.6331 28.4389C35.6331 37.4183 30.6456 38.1348 25.9121 38.721C26.6911 39.4561 27.3516 40.8518 27.3516 43.0385C27.3516 46.1743 27.3262 50.0545 27.3262 50.8176C27.3262 51.4224 27.7157 52.1575 28.7911 51.9435C37.2589 48.8542 43 40.0237 43 29.7044C43 16.7982 33.4738 7 21.729 7ZM9.23065 39.0932C9.12056 39.1862 9.14597 39.4002 9.28992 39.577C9.4254 39.7259 9.62016 39.7911 9.73024 39.6701C9.84032 39.577 9.81492 39.363 9.67097 39.1862C9.53548 39.0373 9.34073 38.9722 9.23065 39.0932ZM8.31613 38.3395C8.25686 38.4604 8.34153 38.6093 8.51089 38.7024C8.64637 38.7954 8.81573 38.7675 8.875 38.6372C8.93427 38.5163 8.8496 38.3674 8.68024 38.2743C8.51089 38.2185 8.3754 38.2464 8.31613 38.3395ZM11.0597 41.6521C10.9242 41.773 10.975 42.0522 11.1698 42.229C11.3645 42.443 11.6101 42.4709 11.7202 42.322C11.8302 42.2011 11.7794 41.9219 11.6101 41.7451C11.4238 41.5311 11.1698 41.5032 11.0597 41.6521ZM10.0944 40.2842C9.95887 40.3773 9.95887 40.6192 10.0944 40.8332C10.2298 41.0472 10.4585 41.1403 10.5685 41.0472C10.704 40.9263 10.704 40.6843 10.5685 40.4703C10.45 40.2563 10.2298 40.1633 10.0944 40.2842Z" fill="#303030"/>
</svg>
