<svg width="56" height="56" viewBox="0 0 56 56" fill="none" xmlns="http://www.w3.org/2000/svg">
<path d="M28.011 15.422C21.0547 15.422 15.4438 21.0329 15.4438 27.9892C15.4438 34.9454 21.0547 40.5563 28.011 40.5563C34.9672 40.5563 40.5782 34.9454 40.5782 27.9892C40.5782 21.0329 34.9672 15.422 28.011 15.422ZM28.011 36.1595C23.5156 36.1595 19.8406 32.4954 19.8406 27.9892C19.8406 23.4829 23.5047 19.8188 28.011 19.8188C32.5172 19.8188 36.1813 23.4829 36.1813 27.9892C36.1813 32.4954 32.5063 36.1595 28.011 36.1595ZM44.0235 14.9079C44.0235 16.5376 42.711 17.8392 41.0922 17.8392C39.4625 17.8392 38.161 16.5267 38.161 14.9079C38.161 13.2892 39.4735 11.9767 41.0922 11.9767C42.711 11.9767 44.0235 13.2892 44.0235 14.9079ZM52.3469 17.8829C52.161 13.9563 51.2641 10.4782 48.3875 7.6126C45.5219 4.74697 42.0438 3.8501 38.1172 3.65322C34.0703 3.42354 21.9406 3.42354 17.8938 3.65322C13.9781 3.83916 10.5 4.73603 7.62346 7.60166C4.7469 10.4673 3.86096 13.9454 3.66409 17.872C3.4344 21.9188 3.4344 34.0485 3.66409 38.0954C3.85002 42.022 4.7469 45.5001 7.62346 48.3657C10.5 51.2313 13.9672 52.1282 17.8938 52.3251C21.9406 52.5548 34.0703 52.5548 38.1172 52.3251C42.0438 52.1392 45.5219 51.2423 48.3875 48.3657C51.2532 45.5001 52.15 42.022 52.3469 38.0954C52.5766 34.0485 52.5766 21.9298 52.3469 17.8829ZM47.1188 42.4376C46.2656 44.5813 44.6141 46.2329 42.4594 47.097C39.2328 48.3767 31.5766 48.0813 28.011 48.0813C24.4453 48.0813 16.7781 48.3657 13.5625 47.097C11.4188 46.2438 9.76721 44.5923 8.90315 42.4376C7.62346 39.211 7.91877 31.5548 7.91877 27.9892C7.91877 24.4235 7.6344 16.7563 8.90315 13.5407C9.75627 11.397 11.4078 9.74541 13.5625 8.88135C16.7891 7.60166 24.4453 7.89697 28.011 7.89697C31.5766 7.89697 39.2438 7.6126 42.4594 8.88135C44.6032 9.73447 46.2547 11.386 47.1188 13.5407C48.3985 16.7673 48.1031 24.4235 48.1031 27.9892C48.1031 31.5548 48.3985 39.222 47.1188 42.4376Z" fill="#303030"/>
</svg>
