<svg width="50" height="50" viewBox="0 0 50 50" fill="none" xmlns="http://www.w3.org/2000/svg">
<circle cx="25" cy="25" r="24.5" fill="white" stroke="black"/>
<path d="M24.75 24.5C29.7211 24.5 33.75 20.583 33.75 15.75C33.75 10.917 29.7211 7 24.75 7C19.7789 7 15.75 10.917 15.75 15.75C15.75 20.583 19.7789 24.5 24.75 24.5ZM31.05 26.6875H29.8758C28.3148 27.3848 26.5781 27.7812 24.75 27.7812C22.9219 27.7812 21.1922 27.3848 19.6242 26.6875H18.45C13.2328 26.6875 9 30.8027 9 35.875V38.7188C9 40.5303 10.5117 42 12.375 42H37.125C38.9883 42 40.5 40.5303 40.5 38.7188V35.875C40.5 30.8027 36.2672 26.6875 31.05 26.6875Z" fill="#303030"/>
</svg>
