<svg width="45" height="45" viewBox="0 0 45 45" fill="none" xmlns="http://www.w3.org/2000/svg">
<g clip-path="url(#clip0_394_373)">
<path d="M20.7657 44.0921C7.99541 25.5789 5.625 23.6789 5.625 16.875C5.625 7.55517 13.1802 0 22.5 0C31.8198 0 39.375 7.55517 39.375 16.875C39.375 23.6789 37.0046 25.5789 24.2343 44.0921C23.3962 45.3027 21.6037 45.3026 20.7657 44.0921ZM22.5 23.9062C26.3833 23.9062 29.5312 20.7583 29.5312 16.875C29.5312 12.9917 26.3833 9.84375 22.5 9.84375C18.6167 9.84375 15.4688 12.9917 15.4688 16.875C15.4688 20.7583 18.6167 23.9062 22.5 23.9062Z" fill="#303030"/>
</g>
<defs>
<clipPath id="clip0_394_373">
<rect width="45" height="45" fill="white"/>
</clipPath>
</defs>
</svg>
