<svg width="45" height="51" viewBox="0 0 45 51" fill="none" xmlns="http://www.w3.org/2000/svg">
<path opacity="0.8" d="M22.5 51C26.0477 51 28.9255 48.1462 28.9255 44.625H16.0745C16.0745 48.1462 18.9523 51 22.5 51ZM44.1351 36.0875C42.1945 34.0196 38.5633 30.9088 38.5633 20.7187C38.5633 12.9791 33.091 6.7834 25.7123 5.26336V3.1875C25.7123 1.4274 24.2739 0 22.5 0C20.7261 0 19.2877 1.4274 19.2877 3.1875V5.26336C11.909 6.7834 6.43666 12.9791 6.43666 20.7187C6.43666 30.9088 2.80552 34.0196 0.86491 36.0875C0.262237 36.73 -0.00495284 37.4979 6.9446e-05 38.25C0.0111185 39.8836 1.30387 41.4375 3.22439 41.4375H41.7756C43.6961 41.4375 44.9899 39.8836 44.9999 38.25C45.0049 37.4979 44.7378 36.729 44.1351 36.0875Z" fill="#303030"/>
</svg>
