<svg width="34" height="34" viewBox="0 0 34 34" fill="none" xmlns="http://www.w3.org/2000/svg">
<path opacity="0.8" d="M33.5352 29.398L26.9145 22.7773C26.6156 22.4785 26.2105 22.3125 25.7855 22.3125H24.7031C26.5359 19.9684 27.625 17.0199 27.625 13.8125C27.625 6.18242 21.4426 0 13.8125 0C6.18242 0 0 6.18242 0 13.8125C0 21.4426 6.18242 27.625 13.8125 27.625C17.0199 27.625 19.9684 26.5359 22.3125 24.7031V25.7855C22.3125 26.2105 22.4785 26.6156 22.7773 26.9145L29.398 33.5352C30.0223 34.1594 31.0316 34.1594 31.6492 33.5352L33.5285 31.6559C34.1527 31.0316 34.1527 30.0223 33.5352 29.398ZM13.8125 22.3125C9.11758 22.3125 5.3125 18.5141 5.3125 13.8125C5.3125 9.11758 9.11094 5.3125 13.8125 5.3125C18.5074 5.3125 22.3125 9.11094 22.3125 13.8125C22.3125 18.5074 18.5141 22.3125 13.8125 22.3125Z" fill="#303030"/>
</svg>
